<?xml version="1.0" encoding="UTF-8"?>
<!DOCTYPE svg PUBLIC "-//W3C//DTD SVG 1.1//EN" "http://www.w3.org/Graphics/SVG/1.1/DTD/svg11.dtd">
<svg xmlns="http://www.w3.org/2000/svg" version="1.1" width="2000px" height="1250px" style="shape-rendering:geometricPrecision; text-rendering:geometricPrecision; image-rendering:optimizeQuality; fill-rule:evenodd; clip-rule:evenodd" xmlns:xlink="http://www.w3.org/1999/xlink">
<g><path style="opacity:1" fill="#35aea6" d="M 374.5,-0.5 C 791.167,-0.5 1207.83,-0.5 1624.5,-0.5C 1624.5,416.167 1624.5,832.833 1624.5,1249.5C 1207.83,1249.5 791.167,1249.5 374.5,1249.5C 374.5,832.833 374.5,416.167 374.5,-0.5 Z"/></g>
<g><path style="opacity:1" fill="#fefefe" d="M 917.5,876.5 C 896.66,876.831 875.993,876.497 855.5,875.5C 930.655,707.855 1005.82,540.188 1081,372.5C 1102.09,371.34 1123.26,371.174 1144.5,372C 1068.93,540.301 993.262,708.467 917.5,876.5 Z"/></g>
<g><path style="opacity:1" fill="#d5eeec" d="M 855.5,875.5 C 875.993,876.497 896.66,876.831 917.5,876.5C 896.663,877.828 875.663,877.828 854.5,876.5C 854.624,875.893 854.957,875.56 855.5,875.5 Z"/></g>
</svg>
